<svg width="25" height="25" viewBox="0 0 25 25" fill="none" xmlns="http://www.w3.org/2000/svg">
<path d="M14.2857 1.78571C14.2857 0.797991 13.4877 0 12.5 0C11.5123 0 10.7143 0.797991 10.7143 1.78571V10.7143H1.78571C0.797991 10.7143 0 11.5123 0 12.5C0 13.4877 0.797991 14.2857 1.78571 14.2857H10.7143V23.2143C10.7143 24.202 11.5123 25 12.5 25C13.4877 25 14.2857 24.202 14.2857 23.2143V14.2857H23.2143C24.202 14.2857 25 13.4877 25 12.5C25 11.5123 24.202 10.7143 23.2143 10.7143H14.2857V1.78571Z" fill="#FF8EB1"/>
</svg>
