<svg width="20" height="20" viewBox="0 0 20 20" fill="none" xmlns="http://www.w3.org/2000/svg">
<path fill-rule="evenodd" clip-rule="evenodd" d="M10 20C12.6522 20 15.1957 18.9464 17.0711 17.0711C18.9464 15.1957 20 12.6522 20 10C20 7.34784 18.9464 4.8043 17.0711 2.92893C15.1957 1.05357 12.6522 0 10 0C7.34784 0 4.8043 1.05357 2.92893 2.92893C1.05357 4.8043 0 7.34784 0 10C0 12.6522 1.05357 15.1957 2.92893 17.0711C4.8043 18.9464 7.34784 20 10 20ZM7.13333 5.36667C6.89638 5.14587 6.58296 5.02566 6.25913 5.03137C5.93529 5.03709 5.62632 5.16828 5.3973 5.3973C5.16828 5.62632 5.03709 5.93529 5.03137 6.25913C5.02566 6.58296 5.14587 6.89638 5.36667 7.13333L12.8667 14.6333C13.1036 14.8541 13.417 14.9743 13.7409 14.9686C14.0647 14.9629 14.3737 14.8317 14.6027 14.6027C14.8317 14.3737 14.9629 14.0647 14.9686 13.7409C14.9743 13.417 14.8541 13.1036 14.6333 12.8667L7.13333 5.36667Z" fill="#F35858"/>
<path d="M7.13333 5.36667C6.89638 5.14587 6.58296 5.02566 6.25913 5.03137C5.93529 5.03709 5.62632 5.16828 5.3973 5.3973C5.16828 5.62632 5.03709 5.93529 5.03137 6.25913C5.02566 6.58296 5.14587 6.89638 5.36667 7.13333L12.8667 14.6333C13.1036 14.8541 13.417 14.9743 13.7409 14.9686C14.0647 14.9629 14.3737 14.8317 14.6027 14.6027C14.8317 14.3737 14.9629 14.0647 14.9686 13.7409C14.9743 13.417 14.8541 13.1036 14.6333 12.8667L7.13333 5.36667Z" fill="#F35858"/>
<path d="M4.69657 8.75078C4.37289 8.7622 4.06627 8.89882 3.84133 9.13185C3.61638 9.36487 3.49067 9.67611 3.49067 10C3.49067 10.3239 3.61638 10.6351 3.84133 10.8682C4.06627 11.1012 4.37289 11.2378 4.69657 11.2492L15.3032 11.2492C15.6269 11.2378 15.9335 11.1012 16.1584 10.8682C16.3834 10.6351 16.5091 10.3239 16.5091 10C16.5091 9.67611 16.3834 9.36487 16.1584 9.13185C15.9335 8.89882 15.6269 8.7622 15.3032 8.75078L4.69657 8.75078Z" fill="white"/>
</svg>
