<svg width="24" height="24" viewBox="0 0 24 24" fill="none" xmlns="http://www.w3.org/2000/svg">
<path d="M17.7384 6.4547C17.6554 6.37162 17.557 6.3057 17.4485 6.26073C17.3401 6.21575 17.2239 6.1926 17.1065 6.1926C16.9891 6.1926 16.8729 6.21575 16.7645 6.26073C16.6561 6.3057 16.5576 6.37162 16.4747 6.4547L12.0921 10.8283L7.70949 6.44574C7.62652 6.36276 7.52801 6.29695 7.4196 6.25204C7.31119 6.20713 7.19499 6.18402 7.07765 6.18402C6.9603 6.18402 6.84411 6.20713 6.73569 6.25204C6.62728 6.29695 6.52878 6.36276 6.4458 6.44574C6.36283 6.52871 6.29701 6.62722 6.2521 6.73563C6.20719 6.84405 6.18408 6.96024 6.18408 7.07759C6.18408 7.19493 6.20719 7.31113 6.2521 7.41954C6.29701 7.52795 6.36283 7.62646 6.4458 7.70943L10.8284 12.092L6.4458 16.4746C6.36283 16.5576 6.29701 16.6561 6.2521 16.7645C6.20719 16.8729 6.18408 16.9891 6.18408 17.1065C6.18408 17.2238 6.20719 17.34 6.2521 17.4484C6.29701 17.5568 6.36283 17.6553 6.4458 17.7383C6.52878 17.8213 6.62728 17.8871 6.73569 17.932C6.84411 17.9769 6.9603 18 7.07765 18C7.19499 18 7.31119 17.9769 7.4196 17.932C7.52801 17.8871 7.62652 17.8213 7.70949 17.7383L12.0921 13.3557L16.4747 17.7383C16.5576 17.8213 16.6562 17.8871 16.7646 17.932C16.873 17.9769 16.9892 18 17.1065 18C17.2239 18 17.3401 17.9769 17.4485 17.932C17.5569 17.8871 17.6554 17.8213 17.7384 17.7383C17.8213 17.6553 17.8872 17.5568 17.9321 17.4484C17.977 17.34 18.0001 17.2238 18.0001 17.1065C18.0001 16.9891 17.977 16.8729 17.9321 16.7645C17.8872 16.6561 17.8213 16.5576 17.7384 16.4746L13.3558 12.092L17.7384 7.70943C18.0789 7.36886 18.0789 6.79527 17.7384 6.4547Z" fill="#020202"/>
</svg>
