<svg width="44" height="44" viewBox="0 0 44 44" fill="none" xmlns="http://www.w3.org/2000/svg">
<g filter="url(#filter0_d_74_1570)">
<circle cx="22" cy="22" r="12" fill="white"/>
</g>
<path d="M27.892 15.302C27.7995 15.2093 27.6896 15.1358 27.5686 15.0856C27.4477 15.0354 27.318 15.0096 27.187 15.0096C27.0561 15.0096 26.9264 15.0354 26.8054 15.0856C26.6844 15.1358 26.5745 15.2093 26.482 15.302L21.592 20.182L16.702 15.292C16.6094 15.1994 16.4995 15.126 16.3786 15.0759C16.2576 15.0258 16.128 15 15.997 15C15.8661 15 15.7364 15.0258 15.6155 15.0759C15.4945 15.126 15.3846 15.1994 15.292 15.292C15.1994 15.3846 15.126 15.4945 15.0759 15.6155C15.0258 15.7364 15 15.8661 15 15.997C15 16.128 15.0258 16.2576 15.0759 16.3786C15.126 16.4995 15.1994 16.6094 15.292 16.702L20.182 21.592L15.292 26.482C15.1994 26.5746 15.126 26.6845 15.0759 26.8055C15.0258 26.9264 15 27.0561 15 27.187C15 27.318 15.0258 27.4476 15.0759 27.5686C15.126 27.6895 15.1994 27.7994 15.292 27.892C15.3846 27.9846 15.4945 28.058 15.6155 28.1081C15.7364 28.1583 15.8661 28.184 15.997 28.184C16.128 28.184 16.2576 28.1583 16.3786 28.1081C16.4995 28.058 16.6094 27.9846 16.702 27.892L21.592 23.002L26.482 27.892C26.5746 27.9846 26.6845 28.058 26.8055 28.1081C26.9264 28.1583 27.0561 28.184 27.187 28.184C27.318 28.184 27.4476 28.1583 27.5686 28.1081C27.6895 28.058 27.7994 27.9846 27.892 27.892C27.9846 27.7994 28.058 27.6895 28.1081 27.5686C28.1583 27.4476 28.184 27.318 28.184 27.187C28.184 27.0561 28.1583 26.9264 28.1081 26.8055C28.058 26.6845 27.9846 26.5746 27.892 26.482L23.002 21.592L27.892 16.702C28.272 16.322 28.272 15.682 27.892 15.302Z" fill="#020202"/>
<defs>
<filter id="filter0_d_74_1570" x="0" y="0" width="44" height="44" filterUnits="userSpaceOnUse" color-interpolation-filters="sRGB">
<feFlood flood-opacity="0" result="BackgroundImageFix"/>
<feColorMatrix in="SourceAlpha" type="matrix" values="0 0 0 0 0 0 0 0 0 0 0 0 0 0 0 0 0 0 127 0" result="hardAlpha"/>
<feOffset/>
<feGaussianBlur stdDeviation="5"/>
<feComposite in2="hardAlpha" operator="out"/>
<feColorMatrix type="matrix" values="0 0 0 0 0 0 0 0 0 0 0 0 0 0 0 0 0 0 0.1 0"/>
<feBlend mode="normal" in2="BackgroundImageFix" result="effect1_dropShadow_74_1570"/>
<feBlend mode="normal" in="SourceGraphic" in2="effect1_dropShadow_74_1570" result="shape"/>
</filter>
</defs>
</svg>
