<svg width="25" height="25" viewBox="0 0 25 25" fill="none" xmlns="http://www.w3.org/2000/svg">
<path d="M12.5 0C9.19724 0.0400743 6.04105 1.3699 3.70548 3.70548C1.3699 6.04105 0.0400743 9.19724 0 12.5C0.0400743 15.8028 1.3699 18.959 3.70548 21.2945C6.04105 23.6301 9.19724 24.9599 12.5 25C15.8028 24.9599 18.959 23.6301 21.2945 21.2945C23.6301 18.959 24.9599 15.8028 25 12.5C24.9599 9.19724 23.6301 6.04105 21.2945 3.70548C18.959 1.3699 15.8028 0.0400743 12.5 0ZM19.6429 13.3929L13.3929 13.3929L13.3929 19.6429H11.6071L11.6071 13.3929H5.35714V11.6071H11.6071V5.35714H13.3929V11.6071L19.6429 11.6071V13.3929Z" fill="#F35858"/>
<path d="M19.6429 13.3929L13.3929 13.3929L13.3929 19.6429H11.6071L11.6071 13.3929H5.35714V11.6071H11.6071V5.35714H13.3929V11.6071L19.6429 11.6071V13.3929Z" fill="#F35858"/>
<path d="M16.9194 18.1821L12.5 13.7627L8.08058 18.1821L6.81789 16.9194L11.2373 12.5L6.81789 8.08061L8.08058 6.81792L12.5 11.2373L16.9194 6.81792L18.1821 8.08061L13.7627 12.5L18.1821 16.9194L16.9194 18.1821Z" fill="white"/>
</svg>
