<svg width="78" height="30" viewBox="0 0 78 30" fill="none" xmlns="http://www.w3.org/2000/svg">
<path d="M35.4094 8.02971C35.97 8.01698 37.174 7.92346 37.6142 8.15155C37.9312 8.50047 37.8385 9.89442 37.8377 10.3899C37.8393 11.4715 37.8317 12.553 37.815 13.6345C38.8858 12.4934 39.7236 11.9969 41.339 12.0577C44.4489 12.175 46.1903 15.0465 45.9834 17.9004C45.8612 19.5868 45.3815 20.7446 44.0943 21.9044C42.6366 23.2076 40.0051 23.432 38.4789 22.1212C38.2346 21.9113 37.9493 21.5778 37.7301 21.3321C37.7358 21.6465 37.7887 22.5027 37.5598 22.657C37.2217 22.885 35.4434 22.8902 35.1377 22.5799C35.0765 22.2979 35.0423 22.0107 35.0356 21.7223C34.9569 18.7741 35.0331 15.4382 35.0344 12.4538L35.0361 9.73038C35.0369 9.31169 35.0286 8.8376 35.0666 8.42124C35.0833 8.23916 35.2601 8.13528 35.4094 8.02971ZM40.9974 20.543C44.4696 19.7456 43.92 14.116 40.0448 14.4692C36.4655 15.2424 37.1281 21.1128 40.9974 20.543Z" fill="#020202"/>
<path d="M52.1241 12.0328C52.1575 12.0286 52.1909 12.0252 52.2244 12.0224C55.3545 11.7579 57.7379 13.8636 57.961 16.7622C57.999 17.2549 58.1568 18.2552 57.383 18.2952C56.5506 18.3382 55.7039 18.3187 54.8684 18.318L49.8761 18.3133C49.9253 18.4988 49.994 18.7506 50.0648 18.9249C50.3294 19.5841 50.8649 20.1153 51.5503 20.3985C52.5926 20.8354 53.9315 20.7497 54.9733 20.3334C55.5337 20.1093 55.9499 19.5361 56.5377 19.8444C56.9066 20.2735 57.7212 21.0126 57.1463 21.5603C55.2891 23.4033 51.0125 23.4757 49.0064 21.7841C45.3722 18.7197 46.8304 12.441 52.1241 12.0328ZM49.8939 16.3734L52.991 16.3699L55.1994 16.3724C54.7844 14.8161 53.9318 14.0934 52.1641 14.2257C50.8197 14.4552 50.2143 15.1633 49.8939 16.3734Z" fill="#020202"/>
<path d="M72.3445 12.0244C75.3676 11.7373 77.7931 14.0265 77.956 16.7557C77.9874 17.2819 78.1934 18.2656 77.3343 18.3035C76.4781 18.3413 75.6328 18.3279 74.7802 18.3273L69.8299 18.3175C70.4071 20.6008 72.617 21.1181 74.8277 20.4054C75.2814 20.259 75.7584 19.7891 76.2618 19.7514C76.432 19.7388 76.5913 19.9221 76.6987 20.0282C77.0384 20.4626 77.6923 21.0535 77.1524 21.568C75.8417 22.8171 73.9167 23.1037 72.1516 22.97C69.3017 22.7522 67.2305 20.8035 67.0223 18.1227C66.7696 14.8699 68.6698 12.2211 72.3445 12.0244ZM69.8737 16.3783L72.9187 16.3735L75.2113 16.3766C74.8153 14.8303 73.8919 14.0563 72.1334 14.2262C70.7475 14.4072 70.2193 15.203 69.8737 16.3783Z" fill="#020202"/>
<path d="M58.3855 12.0326C60.8696 11.9424 63.4479 12.0721 65.9396 12.033C66.855 12.0187 66.7467 12.4994 66.7516 13.2351C66.7537 13.5505 66.7383 13.8871 66.7299 14.2096C65.1368 16.1963 63.2194 18.653 61.5341 20.5303C63.1565 20.5042 64.8671 20.504 66.4938 20.5494C67.0066 20.5637 67.0101 21.2524 66.9954 21.6388C66.9759 22.1511 67.1024 22.5344 66.7083 22.9461C66.6761 22.9519 66.6433 22.9568 66.6104 22.9609C66.3882 22.9903 65.0264 22.9967 64.8489 22.9814C63.9685 22.9054 58.6196 23.1499 58.2115 22.8303C57.9083 22.3961 58.0159 21.4607 58.0299 20.9149L63.1454 14.4852L60.2777 14.4947C59.7753 14.4971 58.5365 14.5814 58.1724 14.3011C57.9425 13.9458 58.0375 13.4273 58.0201 13.0105C57.9998 12.5329 57.9733 12.313 58.3855 12.0326Z" fill="#020202"/>
<path d="M5.69472 2.56484C5.67977 1.52211 5.38511 -0.30106 7.01087 0.0691899C7.80035 0.496137 7.56258 1.75989 7.56231 2.56958L19.3894 2.56209C19.4091 1.5574 19.0634 0.50712 20.09 0C21.6348 0.0595804 21.1967 1.41847 21.2225 2.56916C22.923 2.56656 24.2986 2.52167 25.6404 3.87115C26.2499 4.48151 26.6766 5.25474 26.8707 6.10116C27.0561 6.93343 26.988 9.24478 26.9868 10.1992L26.9969 16.328C26.9962 16.7134 27.0224 17.1327 26.7232 17.4197C26.2125 17.9093 25.2206 17.6412 25.1406 16.8904C25.077 16.2948 25.124 15.6613 25.1229 15.058L25.1189 9.90243C25.1193 8.9486 25.1343 7.98309 25.0994 7.0379C25.0517 5.7421 24.0537 4.63059 22.7603 4.57149C21.6113 4.51898 20.4465 4.54301 19.2946 4.54349L12.6048 4.54795L7.06222 4.54486C6.11452 4.54465 5.10892 4.51555 4.16298 4.58632C3.71666 4.61968 3.13418 4.91607 2.79075 5.19633C2.24675 5.66316 1.92111 6.38245 1.89703 7.10215C1.85942 8.26301 1.88357 9.46615 1.8835 10.6288L1.88283 17.605L1.87782 22.1515C1.87295 23.4327 1.65547 25.1044 2.54006 26.1223C3.03643 26.6935 3.78945 27.0361 4.5399 27.032C5.66563 27.0586 6.80178 27.0432 7.92549 27.0434L14.512 27.0459C15.3489 27.0463 16.6628 27.0554 17.5 27.0459C17.9327 27.041 18.471 27.0162 18.8344 27.2911C19.5839 27.8578 19.2105 28.9844 18.2868 28.9833C17.3241 29.0106 15.8805 28.9941 14.9157 28.9941L9.57493 28.9931L6.02584 28.9923C4.97363 28.9934 3.77288 29.0741 2.78574 28.6857C1.35723 28.1237 0.190771 26.6226 0.0713109 25.0615C-0.0198736 23.8699 0.012934 22.6657 0.0137458 21.4719L0.0124607 15.4074L0.0122584 9.57975C0.0129349 7.21417 -0.285038 4.84928 2.01764 3.31413C3.23152 2.50485 4.31626 2.56333 5.69472 2.56484Z" fill="#FF8EB1"/>
<path d="M14.7248 7.04084C20.8428 6.42617 19.6136 12.9202 15.2255 15.0287C16.2378 15.2465 17.1668 15.4826 17.9681 16.2165C19.6878 17.7991 19.0273 20.2809 17.6677 21.8909C14.9195 25.1451 8.80275 26.2008 5.49864 23.326C4.63064 22.5708 4.92828 21.2805 6.13945 21.4719C6.40346 21.5136 6.85298 21.9801 7.08403 22.1304C7.97024 22.851 9.14692 23.0355 10.2428 23.0591C12.3209 23.086 14.4373 22.458 15.9572 20.9299C16.8329 19.952 17.6409 18.1367 16.2574 17.1708C14.9961 16.2902 13.2342 16.4551 11.8032 16.7516C11.9055 16.2542 12.142 15.6117 12.314 15.1376C14.0669 14.23 15.2672 13.6435 16.4305 11.8933C17.6812 10.0115 16.9636 8.72394 14.7658 9.00314C12.1896 9.33046 9.51129 10.684 8.02587 12.955C7.8181 13.253 7.51553 14.0892 7.77077 14.4538C8.30896 15.2227 8.61312 16.0741 7.40646 16.4248C6.58459 16.6637 5.82626 15.2369 5.75859 14.4522C5.65484 13.2477 6.29652 12.1022 7.0252 11.1929C8.9618 8.78125 11.7358 7.35005 14.7248 7.04084Z" fill="#FF8EB1"/>
<path d="M24.9958 19.0235C28.0198 18.7451 30.6971 20.9704 30.9763 23.9943C31.2556 27.0182 29.031 29.6962 26.0073 29.9762C22.9822 30.2564 20.303 28.0308 20.0237 25.0057C19.7443 21.9806 21.9707 19.3019 24.9958 19.0235Z" fill="#879FFF"/>
<path d="M27.9357 22.0024C29.4233 21.9388 29.1185 23.1553 28.4267 23.7468C27.5707 24.4789 25.814 26.6638 24.8142 27C24.0835 26.9461 23.5591 26.2983 23.055 25.8204C22.4454 25.2894 21.3294 24.4736 22.541 23.8639C23.3411 23.4612 24.3112 25.2274 24.7562 24.9753C25.7962 24.3861 26.8975 22.5069 27.9357 22.0024Z" fill="white"/>
<path d="M13.0615 11.0056C13.2985 10.9859 13.4774 11.0144 13.682 11.1516C13.8427 11.2594 13.9545 11.4309 13.9914 11.6265C14.0282 11.8213 13.9394 12.1916 13.8644 12.3707C12.6366 15.2937 11.7111 18.3515 10.9488 21.4395C10.7687 22.1694 10.7803 22.8288 9.96535 23C9.95593 22.9991 9.94645 22.9984 9.93703 22.9972C9.92136 22.9954 9.90575 22.9931 9.89007 22.9912C9.77803 22.9774 9.66522 22.9656 9.56033 22.9192C9.3189 22.8121 9.13939 22.6352 9.04192 22.3782C8.64168 21.3227 11.2226 13.9037 11.8786 12.4513C12.1649 11.8176 12.3914 11.2554 13.0615 11.0056Z" fill="#FF8EB1"/>
</svg>
