<svg width="56" height="50" viewBox="0 0 56 50" fill="none" xmlns="http://www.w3.org/2000/svg">
<path d="M43.4665 14.672C44.0505 14.8712 45.5146 15.881 46.0472 16.298C48.5569 18.2528 50.6078 21.33 50.9419 24.526C51.4549 29.8252 47.5692 34.384 43.3797 37.0777C35.8542 41.9161 26.9754 41.7161 18.6921 44.2687C16.258 45.019 13.7377 46.1459 12.1078 48.1746C10.8118 47.8668 9.80593 47.5914 8.53022 47.1754C7.86917 46.9455 7.21721 46.6907 6.57558 46.4115C4.62095 45.5492 1.88402 44.0223 1.09593 41.9542C0.839653 41.2818 0.852068 40.5835 1.15872 39.9292C1.49643 39.2087 2.09622 38.6643 2.73478 38.2044C6.89295 35.2091 15.8793 34.4402 21.0551 33.8636C22.3773 33.7173 23.6962 33.5431 25.0109 33.341C27.8718 32.9142 30.6831 32.2092 33.404 31.2362C37.5805 29.7111 41.3618 27.1063 43.2664 23.0046C44.2686 20.8465 44.6514 18.5664 44.0179 16.2383C43.8652 15.6776 43.6696 15.2124 43.4665 14.672Z" fill="#FF8EB1"/>
<path d="M35.528 10.3546C35.9484 10.5381 36.3957 10.8169 36.7845 11.0684C38.6491 12.2744 40.2132 13.9737 41.0888 16.0129C41.9291 17.9696 41.8973 19.8821 41.0711 21.8411C40.338 23.5793 38.9975 25.1579 37.5384 26.3589C34.1367 29.159 29.3935 30.5608 25.0975 31.2824C21.8582 31.8265 18.4944 32.0751 15.2383 32.5504C12.0261 33.0194 8.68515 33.6468 5.66592 34.8678C4.16532 35.4603 2.97449 36.1348 1.65098 37.0383C2.36546 35.2013 3.50499 33.4381 4.94542 32.0624C8.69243 28.484 14.101 26.2855 18.8843 24.4251C22.9831 22.831 27.2196 21.3743 30.6396 18.5251C32.5092 16.9675 34.4661 14.5125 35.2197 12.1855C35.4103 11.5972 35.4781 10.9667 35.528 10.3546Z" fill="#FF8EB1"/>
<path fill-rule="evenodd" clip-rule="evenodd" d="M18.5996 0.0326171C19.718 -0.094247 21.4602 0.166181 22.5288 0.516207C24.9152 1.28108 26.8954 2.95472 28.0316 5.16701C29.2333 7.55875 29.3163 10.1603 28.4716 12.672C26.6256 18.1611 21.0765 20.843 16.1358 23.1284C14.8125 23.7347 13.4975 24.3588 12.1913 25.0006C7.83419 27.1519 3.31311 30.1906 1.04833 34.5815C0.670591 35.3138 0.406019 36.0224 0.14395 36.7986C-0.49602 33.2025 1.07282 29.8674 3.36466 27.1577C4.10517 26.2821 4.88438 25.5739 5.74247 24.82C7.22578 23.6186 8.35797 22.834 10.0279 21.8472C14.2572 19.348 19.7054 17.3241 22.4947 13.0997C23.4095 11.7142 23.9985 9.86291 23.6073 8.23131C23.3768 7.27013 22.7229 6.2853 21.8583 5.76929C21.0905 5.31102 20.1438 5.14565 19.2811 5.35445C18.0545 5.65135 17.3979 6.55329 17.2723 7.76359C17.2175 8.29274 17.2159 8.88337 17.1295 9.39548C17.016 10.0514 16.7783 10.6802 16.4291 11.2489C15.7016 12.435 14.8935 12.8015 14.0673 13.7562C12.8358 15.1791 12.0424 17.3369 9.97983 17.872C9.78592 17.9223 9.66804 17.9424 9.49304 17.836C9.27803 17.5599 9.65212 16.9403 9.76702 16.6011C10.0269 15.8335 10.1953 15.0383 10.2688 14.232C10.3982 12.8076 10.1672 12.297 9.6552 11.0403C9.40992 10.4273 9.25994 9.78113 9.21044 9.12372C8.97128 5.94267 10.9774 3.05497 13.6796 1.5063C15.256 0.602841 16.7958 0.168898 18.5996 0.0326171ZM14.3231 8.96477C13.8905 8.50113 13.3119 8.44799 12.9318 8.5232C12.5516 8.59841 12.2075 8.74613 12.0072 9.12342C11.653 9.79034 12.0576 10.3471 11.9715 11.0434L12.573 10.5777C12.5422 10.4145 12.508 10.2798 12.5127 10.1137C12.6905 9.1811 13.4081 9.04554 14.1279 9.56809L14.3231 8.96477Z" fill="#FF8EB1"/>
<path d="M52.925 22.9625C53.0043 23.0136 53.0765 23.1159 53.1361 23.1932C55.4101 26.2178 56.3885 30.0068 55.8597 33.7399C55.2406 37.9914 52.6739 41.7921 49.2224 44.3307C43.2277 48.7405 33.8141 50.093 26.486 49.9951C23.6618 49.9426 20.8444 49.7051 18.052 49.2842C16.8742 49.0997 15.7016 48.8833 14.5356 48.6356C14.8955 48.1579 15.2769 47.7748 15.7866 47.4519C17.1058 46.6149 18.7347 46.0772 20.2248 45.6509C23.8944 44.6008 27.697 44.136 31.4442 43.449C38.65 42.1281 46.277 39.5904 50.5695 33.3005C52.1117 31.0405 53.2159 28.2217 53.2137 25.4591C53.2132 24.5999 53.088 23.8037 52.925 22.9625Z" fill="#FF8EB1"/>
</svg>
