<svg width="450" height="178" viewBox="0 0 450 178" fill="none" xmlns="http://www.w3.org/2000/svg">
<path d="M90.7616 43.8814C125.444 40.3967 118.476 77.2124 93.5997 89.1659C99.3384 90.4007 104.605 91.739 109.148 95.8997C118.897 104.872 115.152 118.942 107.445 128.069C91.8653 146.517 57.1896 152.502 38.4587 136.205C33.538 131.923 35.2254 124.608 42.0915 125.693C43.0939 125.852 44.5681 127.09 45.826 128.147C46.4461 128.668 47.0137 129.145 47.4462 129.427C52.4701 133.512 59.1407 134.558 65.3534 134.691C77.1338 134.844 89.1316 131.284 97.7479 122.621C102.712 117.077 107.293 106.786 99.4499 101.31C93.0929 96.8716 84.4934 97.118 76.9628 98.4084C74.1026 107.34 71.6039 116.402 69.3556 125.51C69.1919 126.173 69.0561 126.826 68.9245 127.459C68.2351 130.775 67.6599 133.541 63.7803 134.356C63.7405 134.353 63.6596 134.346 63.6198 134.341C63.5309 134.331 63.4425 134.318 63.3536 134.306L63.2533 134.294C62.6513 134.221 62.0476 134.148 61.4843 133.898C60.1156 133.292 59.098 132.288 58.5455 130.831C56.2765 124.848 70.9079 82.7882 74.6267 74.5541L74.8446 74.0703C76.3705 70.6776 77.7052 67.7102 81.3326 66.3582C82.676 66.2468 83.69 66.4081 84.8499 67.1858C85.7612 67.797 86.3945 68.7692 86.604 69.8785C86.8124 70.9827 86.3093 73.082 85.8837 74.097C83.9561 78.6862 82.16 83.3341 80.4786 88.028C88.6309 83.7637 94.6127 80.1451 100.431 71.3909C107.521 60.7225 103.453 53.4231 90.9941 55.006C76.3896 56.8616 61.2063 64.5348 52.7855 77.4096C51.6076 79.099 49.8924 83.8397 51.3393 85.9069C54.3903 90.2655 56.1146 95.0924 49.2741 97.0805C44.6149 98.4349 40.316 90.3463 39.9324 85.8975C39.3442 79.0692 42.9818 72.5752 47.1127 67.4203C58.0913 53.748 73.8172 45.6343 90.7616 43.8814Z" fill="#FF8EB1"/>
<path fill-rule="evenodd" clip-rule="evenodd" d="M116.403 0C113.481 0 111.112 2.36896 111.112 5.29122V15.8737H121.694V5.29122C121.694 2.36896 119.325 0 116.403 0Z" fill="#FF8EB1"/>
<path fill-rule="evenodd" clip-rule="evenodd" d="M42.3283 0C39.4061 0 37.0373 2.36896 37.0373 5.29122V15.8737H26.4552C11.8444 15.8737 0 27.7185 0 42.3298V148.154L0.0361692 149.513C0.743542 163.493 12.3002 174.61 26.4552 174.61H110.45C113.738 174.61 116.403 171.945 116.403 168.658C116.403 165.37 113.738 162.705 110.45 162.705H26.4552C18.4192 162.705 11.9048 156.19 11.9048 148.154V42.3298C11.9048 34.2935 18.4192 27.7789 26.4552 27.7789H132.276C140.312 27.7789 146.826 34.2936 146.826 42.3298V103.468C146.826 106.756 149.491 109.421 152.779 109.421C156.066 109.421 158.731 106.756 158.731 103.468V42.3298C158.731 28.1743 147.614 16.6172 133.635 15.9098L132.276 15.8737H121.694H111.112H47.6193V5.29122C47.6193 2.36896 45.2504 0 42.3283 0Z" fill="#FF8EB1"/>
<path fill-rule="evenodd" clip-rule="evenodd" d="M153.12 178C168.798 178 181.507 165.29 181.507 149.611C181.507 133.933 168.798 121.223 153.12 121.223C137.442 121.223 124.732 133.933 124.732 149.611C124.732 165.29 137.442 178 153.12 178ZM163.332 138.526L149.155 152.703L143.058 146.606C141.121 144.669 137.982 144.669 136.046 146.606C134.109 148.542 134.109 151.682 136.046 153.618L145.649 163.222C147.586 165.158 150.725 165.158 152.662 163.222L170.344 145.538C172.281 143.602 172.281 140.462 170.344 138.526C168.408 136.59 165.269 136.59 163.332 138.526Z" fill="#879FFF"/>
<path d="M234.581 137.561C228.865 137.561 224.039 135.783 220.102 132.227C218.959 135.783 216.355 137.561 212.291 137.561C209.878 137.561 207.845 136.863 206.194 135.466C204.543 134.069 203.718 132.29 203.718 130.131V59.2574C203.718 57.2252 204.48 55.5105 206.004 54.1133C207.655 52.5892 209.751 51.8271 212.291 51.8271C214.704 51.8271 216.672 52.5892 218.197 54.1133C219.721 55.5105 220.483 57.2887 220.483 59.4479V84.4061C224.801 80.4687 229.691 78.5 235.152 78.5C243.535 78.5 250.203 81.1673 255.156 86.5019C260.237 91.7094 262.777 98.8222 262.777 107.84C262.777 116.858 260.237 124.098 255.156 129.56C250.076 134.894 243.217 137.561 234.581 137.561ZM233.247 122.129C237.185 122.129 240.296 120.796 242.582 118.128C244.996 115.334 246.202 111.905 246.202 107.84C246.202 103.649 244.996 100.283 242.582 97.7426C240.296 95.2023 237.185 93.9322 233.247 93.9322C229.437 93.9322 226.325 95.2023 223.912 97.7426C221.626 100.283 220.483 103.649 220.483 107.84C220.483 111.905 221.626 115.334 223.912 118.128C226.325 120.796 229.437 122.129 233.247 122.129Z" fill="#020202"/>
<path d="M300.704 137.561C292.067 137.561 284.764 135.021 278.795 129.941C272.952 124.733 270.031 117.62 270.031 108.602C270.031 99.2032 272.889 91.8364 278.604 86.5019C284.447 81.1673 291.75 78.5 300.513 78.5C306.737 78.5 311.881 79.6431 315.945 81.9294C320.009 84.2156 323.058 87.1369 325.09 90.6933C327.122 94.2497 328.138 97.9966 328.138 101.934C328.138 108.539 325.217 111.841 319.374 111.841H287.749C286.733 111.841 286.225 112.476 286.225 113.746C286.225 116.668 287.813 119.017 290.988 120.796C294.29 122.447 297.973 123.272 302.038 123.272C304.578 123.272 307.118 122.955 309.658 122.32C312.198 121.558 314.421 120.478 316.326 119.081C317.596 118.192 318.93 117.747 320.327 117.747C322.232 117.747 323.82 118.446 325.09 119.843C326.487 121.24 327.185 122.891 327.185 124.797C327.185 127.083 325.979 129.242 323.566 131.274C321.28 133.179 317.914 134.704 313.468 135.847C309.15 136.99 304.895 137.561 300.704 137.561ZM310.611 100.791C310.865 100.791 311.182 100.727 311.563 100.6C312.071 100.473 312.325 100.029 312.325 99.2668C312.325 97.3615 311.119 95.6469 308.706 94.1227C306.419 92.4715 303.435 91.6459 299.751 91.6459C295.814 91.6459 292.575 92.535 290.035 94.3132C287.622 95.9644 286.415 97.6791 286.415 99.4573C286.415 100.346 286.924 100.791 287.94 100.791H310.611Z" fill="#020202"/>
<path d="M341.993 135.656C339.199 135.656 336.977 134.831 335.325 133.179C333.674 131.401 332.849 129.433 332.849 127.273C332.849 125.114 333.738 123.018 335.516 120.986L358.378 99.0762C359.013 98.4412 359.33 97.8061 359.33 97.171C359.33 96.1549 358.505 95.6469 356.854 95.6469H342.184C339.517 95.6469 337.485 94.8848 336.088 93.3606C334.69 91.7094 333.992 89.9312 333.992 88.026C333.992 86.1208 334.69 84.4061 336.088 82.882C337.485 81.2308 339.517 80.4052 342.184 80.4052H375.143C378.064 80.4052 380.414 81.2943 382.192 83.0725C383.97 84.7237 384.859 86.7559 384.859 89.1692C384.859 90.4393 384.542 91.8364 383.907 93.3606C383.398 94.7578 382.446 96.0914 381.049 97.3616L360.854 116.985C360.219 117.62 359.902 118.255 359.902 118.89C359.902 119.906 360.727 120.415 362.378 120.415H379.715C382.255 120.415 384.097 121.24 385.24 122.891C386.51 124.415 387.145 126.13 387.145 128.035C387.145 129.941 386.51 131.719 385.24 133.37C384.097 134.894 382.255 135.656 379.715 135.656H341.993Z" fill="#020202"/>
<path d="M422.566 137.561C413.929 137.561 406.626 135.021 400.657 129.941C394.814 124.733 391.893 117.62 391.893 108.602C391.893 99.2032 394.751 91.8364 400.466 86.5019C406.309 81.1673 413.612 78.5 422.375 78.5C428.599 78.5 433.743 79.6431 437.807 81.9294C441.871 84.2156 444.92 87.1369 446.952 90.6933C448.984 94.2497 450 97.9966 450 101.934C450 108.539 447.079 111.841 441.236 111.841H409.611C408.595 111.841 408.087 112.476 408.087 113.746C408.087 116.668 409.675 119.017 412.85 120.796C416.152 122.447 419.835 123.272 423.9 123.272C426.44 123.272 428.98 122.955 431.52 122.32C434.06 121.558 436.283 120.478 438.188 119.081C439.458 118.192 440.792 117.747 442.189 117.747C444.094 117.747 445.682 118.446 446.952 119.843C448.349 121.24 449.047 122.891 449.047 124.797C449.047 127.083 447.841 129.242 445.428 131.274C443.142 133.179 439.776 134.704 435.33 135.847C431.012 136.99 426.757 137.561 422.566 137.561ZM432.473 100.791C432.727 100.791 433.044 100.727 433.425 100.6C433.933 100.473 434.187 100.029 434.187 99.2668C434.187 97.3615 432.981 95.6469 430.568 94.1227C428.281 92.4715 425.297 91.6459 421.613 91.6459C417.676 91.6459 414.437 92.535 411.897 94.3132C409.484 95.9644 408.277 97.6791 408.277 99.4573C408.277 100.346 408.785 100.791 409.802 100.791H432.473Z" fill="#020202"/>
<path d="M149.155 152.703L163.332 138.526C165.269 136.59 168.408 136.59 170.344 138.526C172.281 140.462 172.281 143.602 170.344 145.538L152.662 163.222C150.725 165.158 147.586 165.158 145.649 163.222L136.046 153.618C134.109 151.682 134.109 148.542 136.046 146.606C137.982 144.669 141.121 144.669 143.058 146.606L149.155 152.703Z" fill="white"/>
</svg>
