<svg width="25" height="25" viewBox="0 0 25 25" fill="none" xmlns="http://www.w3.org/2000/svg">
<path d="M25 12.5C25 19.4036 19.4036 25 12.5 25C5.59644 25 0 19.4036 0 12.5C0 5.59644 5.59644 0 12.5 0C19.4036 0 25 5.59644 25 12.5Z" fill="#A6A6A6"/>
<path fill-rule="evenodd" clip-rule="evenodd" d="M11.3571 11.8572H8.14286C7.649 11.8572 7.25 12.2562 7.25 12.75C7.25 13.2439 7.649 13.6429 8.14286 13.6429H11.3571H13.1429H16.3571C16.851 13.6429 17.25 13.2439 17.25 12.75C17.25 12.2562 16.851 11.8572 16.3571 11.8572H13.1429H11.3571Z" fill="white"/>
</svg>
