<svg width="14" height="14" viewBox="0 0 14 14" fill="none" xmlns="http://www.w3.org/2000/svg">
<mask id="mask0_3_117" style="mask-type:luminance" maskUnits="userSpaceOnUse" x="0" y="0" width="14" height="14">
<path d="M0 0H14V14H0V0Z" fill="white"/>
<path fill-rule="evenodd" clip-rule="evenodd" d="M5.49386 3.76922C5.56386 4.21022 5.66779 4.62807 5.80348 4.89138C5.91009 5.09868 6.11902 5.36199 6.40548 5.64899C6.60202 5.84553 6.8104 6.02915 6.99994 6.1853C7.18948 6.02915 7.3984 5.84553 7.5944 5.64899C7.88086 5.36199 8.08979 5.09868 8.1964 4.89138C8.33209 4.62807 8.43548 4.21022 8.50602 3.76922H5.49386ZM5.1374 2.6923C4.68294 2.6923 4.32002 3.06761 4.37279 3.51938C4.44009 4.09876 4.57632 4.86014 4.84609 5.38461C5.20794 6.0873 6.0404 6.80776 6.5584 7.21161C6.81956 7.41622 7.18032 7.41622 7.44148 7.21161C7.95948 6.80776 8.79194 6.0873 9.15379 5.38461C9.42355 4.86068 9.55978 4.09876 9.62763 3.51938C9.67986 3.06707 9.31694 2.6923 8.86248 2.6923H5.1374Z" fill="black"/>
<path fill-rule="evenodd" clip-rule="evenodd" d="M8.50597 10.2308C8.43597 9.78977 8.33205 9.37192 8.19635 9.10861C8.08974 8.90184 7.88082 8.63746 7.59435 8.351C7.40462 8.16311 7.20625 7.98415 6.99989 7.81469C6.81035 7.97084 6.60143 8.15446 6.40543 8.351C6.11897 8.63746 5.91005 8.90184 5.80343 9.10861C5.66774 9.37192 5.56435 9.78977 5.49381 10.2308H8.50597ZM8.86243 11.3077C9.31689 11.3077 9.67981 10.9324 9.62705 10.4812C9.55974 9.90123 9.42351 9.1393 9.15374 8.61538C8.79189 7.91269 7.95943 7.19223 7.44143 6.78838C7.31556 6.68934 7.16005 6.63549 6.99989 6.63549C6.83973 6.63549 6.68422 6.68934 6.55835 6.78838C6.04035 7.19223 5.20789 7.91269 4.84605 8.61538C4.57628 9.1393 4.44005 9.90123 4.3722 10.4812C4.31997 10.9324 4.68289 11.3077 5.13735 11.3077H8.86243Z" fill="black"/>
<path d="M5.38452 10.0961C5.38452 10.0961 6.46144 9.28844 6.99991 9.28844C7.53837 9.28844 8.61529 10.0961 8.61529 10.0961V10.3654H5.38452V10.0961Z" fill="black"/>
<path fill-rule="evenodd" clip-rule="evenodd" d="M3.76904 2.96154C3.76904 2.81873 3.82577 2.68177 3.92675 2.58079C4.02774 2.47981 4.1647 2.42308 4.3075 2.42308H9.69212C9.83493 2.42308 9.97189 2.47981 10.0729 2.58079C10.1739 2.68177 10.2306 2.81873 10.2306 2.96154C10.2306 3.10435 10.1739 3.24131 10.0729 3.34229C9.97189 3.44327 9.83493 3.5 9.69212 3.5H4.3075C4.1647 3.5 4.02774 3.44327 3.92675 3.34229C3.82577 3.24131 3.76904 3.10435 3.76904 2.96154ZM3.76904 11.0385C3.76904 10.8957 3.82577 10.7587 3.92675 10.6577C4.02774 10.5567 4.1647 10.5 4.3075 10.5H9.69212C9.83493 10.5 9.97189 10.5567 10.0729 10.6577C10.1739 10.7587 10.2306 10.8957 10.2306 11.0385C10.2306 11.1813 10.1739 11.3182 10.0729 11.4192C9.97189 11.5202 9.83493 11.5769 9.69212 11.5769H4.3075C4.1647 11.5769 4.02774 11.5202 3.92675 11.4192C3.82577 11.3182 3.76904 11.1813 3.76904 11.0385Z" fill="black"/>
</mask>
<g mask="url(#mask0_3_117)">
<path d="M7 14C10.866 14 14 10.866 14 7C14 3.13401 10.866 0 7 0C3.13401 0 0 3.13401 0 7C0 10.866 3.13401 14 7 14Z" fill="#FFAE52"/>
</g>
</svg>
