<svg width="25" height="25" viewBox="0 0 25 25" fill="none" xmlns="http://www.w3.org/2000/svg">
<path d="M25 12.5C25 19.4036 19.4036 25 12.5 25C5.59644 25 0 19.4036 0 12.5C0 5.59644 5.59644 0 12.5 0C19.4036 0 25 5.59644 25 12.5Z" fill="#A6A6A6"/>
<path d="M13.1428 7.39287C13.1428 6.89901 12.7438 6.50002 12.25 6.50002C11.7561 6.50002 11.3571 6.89901 11.3571 7.39287V11.8572H6.89284C6.39898 11.8572 5.99998 12.2562 5.99998 12.75C5.99998 13.2439 6.39898 13.6429 6.89284 13.6429H11.3571V18.1072C11.3571 18.601 11.7561 19 12.25 19C12.7438 19 13.1428 18.601 13.1428 18.1072V13.6429H17.6071C18.101 13.6429 18.5 13.2439 18.5 12.75C18.5 12.2562 18.101 11.8572 17.6071 11.8572H13.1428V7.39287Z" fill="white"/>
</svg>
