<svg width="25" height="25" viewBox="0 0 25 25" fill="none" xmlns="http://www.w3.org/2000/svg">
<path d="M19.791 15.667C20.3433 15.667 20.791 16.1147 20.791 16.667V18.792H22.916C23.4683 18.792 23.916 19.2397 23.916 19.792C23.9158 20.3441 23.4682 20.792 22.916 20.792H20.791V22.917C20.7908 23.4691 20.3432 23.917 19.791 23.917C19.2392 23.9166 18.7912 23.4689 18.791 22.917V20.792H16.666C16.1142 20.7916 15.6662 20.3439 15.666 19.792C15.666 19.24 16.114 18.7923 16.666 18.792H18.791V16.667C18.791 16.115 19.239 15.6673 19.791 15.667ZM18.75 2.125C19.844 2.125 20.8934 2.55942 21.667 3.33301C22.4406 4.1066 22.875 5.15598 22.875 6.25V13.0205C22.875 13.5728 22.4273 14.0205 21.875 14.0205C21.3227 14.0205 20.875 13.5728 20.875 13.0205V6.25C20.875 5.68641 20.6514 5.14558 20.2529 4.74707C19.8544 4.34856 19.3136 4.125 18.75 4.125H6.25C5.68641 4.125 5.14559 4.34856 4.74707 4.74707C4.34856 5.14559 4.125 5.68641 4.125 6.25V14.252L7.62598 10.751L7.63965 10.7383C8.27305 10.1288 9.05131 9.76084 9.89551 9.76074C10.7398 9.76074 11.5179 10.1287 12.1514 10.7383C12.1558 10.7426 12.1606 10.7466 12.165 10.751L14.583 13.1689L14.9316 12.8213C15.8622 11.9269 17.0765 11.5879 18.2598 12.0469C18.7743 12.2467 19.0295 12.8261 18.8301 13.3408C18.6302 13.8553 18.0508 14.1116 17.5361 13.9121C17.1962 13.7803 16.7866 13.815 16.3242 14.2559L15.9971 14.583L16.332 14.918C16.7225 15.3085 16.7225 15.9415 16.332 16.332C15.9415 16.7225 15.3085 16.7225 14.918 16.332L13.8848 15.2988C13.882 15.2961 13.8787 15.2938 13.876 15.291C13.8729 15.2879 13.8702 15.2844 13.8672 15.2812L10.7646 12.1787C10.4316 11.8583 10.1303 11.7607 9.89551 11.7607C9.66071 11.7608 9.3594 11.8582 9.02637 12.1787L4.125 17.0801V18.75C4.125 19.3136 4.34856 19.8544 4.74707 20.2529C5.14558 20.6514 5.68641 20.875 6.25 20.875H13.0205C13.5728 20.875 14.0205 21.3227 14.0205 21.875C14.0205 22.4273 13.5728 22.875 13.0205 22.875H6.25C5.15598 22.875 4.1066 22.4406 3.33301 21.667C2.55942 20.8934 2.125 19.844 2.125 18.75V6.25C2.125 5.15598 2.55942 4.1066 3.33301 3.33301C4.1066 2.55942 5.15598 2.125 6.25 2.125H18.75ZM15.6357 7.33301C16.1878 7.33318 16.6356 7.78098 16.6357 8.33301C16.6357 8.88518 16.1879 9.33283 15.6357 9.33301H15.625C15.0727 9.33301 14.625 8.88529 14.625 8.33301C14.6252 7.78087 15.0728 7.33301 15.625 7.33301H15.6357Z" fill="#A6A6A6"/>
</svg>
