<svg width="25" height="25" viewBox="0 0 25 25" fill="none" xmlns="http://www.w3.org/2000/svg">
<path d="M1.30225 11.7708C1.30225 5.66302 6.35433 0.78125 12.5002 0.78125C18.646 0.78125 23.6981 5.66302 23.6981 11.7708V16.1917C23.6981 16.2872 23.6934 16.3814 23.684 16.4745C23.6934 16.537 23.6981 16.601 23.6981 16.6667C23.6981 17.6927 23.5715 18.8109 23.4481 19.6651C23.2543 21.0021 22.4632 22.3281 21.0147 22.9016C19.4559 23.5193 16.7491 24.2187 12.5002 24.2187C12.1548 24.2187 11.8236 24.0816 11.5795 23.8374C11.3353 23.5932 11.1981 23.262 11.1981 22.9167C11.1981 22.5713 11.3353 22.2401 11.5795 21.996C11.8236 21.7518 12.1548 21.6146 12.5002 21.6146C16.4601 21.6146 18.8361 20.9635 20.0559 20.4807C20.4528 20.3234 20.7798 19.9198 20.8705 19.2922C20.8819 19.2127 20.8932 19.1318 20.9043 19.0495C20.172 19.2125 19.3262 19.3698 18.4851 19.4578C17.3799 19.574 16.3022 18.9078 16.1007 17.7078C15.983 17.0099 15.8856 16.0031 15.8856 14.5828C15.8856 13.1635 15.983 12.1573 16.1007 11.4589C16.3022 10.2589 17.3799 9.59271 18.4851 9.70885C18.9288 9.75521 19.3741 9.82083 19.8028 9.89635C18.9548 6.76927 16.033 4.42708 12.5002 4.42708C8.96735 4.42708 6.046 6.76927 5.19756 9.89635C5.6345 9.8187 6.074 9.75616 6.51527 9.70885C7.62047 9.59271 8.69808 10.2589 8.90016 11.4589C9.01735 12.1568 9.11475 13.1635 9.11475 14.5833C9.11475 16.0031 9.01735 17.0094 8.90016 17.7078C8.69808 18.9078 7.62047 19.574 6.51527 19.4578C5.37048 19.338 4.21839 19.0906 3.35381 18.8745C2.10381 18.5615 1.30225 17.4281 1.30225 16.1922V11.7708Z" fill="white"/>
</svg>
