<svg width="25" height="25" viewBox="0 0 25 25" fill="none" xmlns="http://www.w3.org/2000/svg">
<path fill-rule="evenodd" clip-rule="evenodd" d="M12.5 25C15.8152 25 18.9946 23.683 21.3388 21.3388C23.683 18.9946 25 15.8152 25 12.5C25 9.18479 23.683 6.00537 21.3388 3.66116C18.9946 1.31696 15.8152 0 12.5 0C9.18479 0 6.00537 1.31696 3.66116 3.66116C1.31696 6.00537 0 9.18479 0 12.5C0 15.8152 1.31696 18.9946 3.66116 21.3388C6.00537 23.683 9.18479 25 12.5 25ZM8.91667 6.70833C8.62047 6.43233 8.2287 6.28208 7.82391 6.28922C7.41912 6.29636 7.0329 6.46034 6.74662 6.74662C6.46034 7.0329 6.29636 7.41912 6.28922 7.82391C6.28208 8.2287 6.43233 8.62047 6.70833 8.91667L16.0833 18.2917C16.3795 18.5677 16.7713 18.7179 17.1761 18.7108C17.5809 18.7036 17.9671 18.5397 18.2534 18.2534C18.5397 17.9671 18.7036 17.5809 18.7108 17.1761C18.7179 16.7713 18.5677 16.3795 18.2917 16.0833L8.91667 6.70833Z" fill="#F35858"/>
<path d="M8.91667 6.70833C8.62047 6.43233 8.2287 6.28208 7.82391 6.28922C7.41912 6.29636 7.0329 6.46034 6.74662 6.74662C6.46034 7.0329 6.29636 7.41912 6.28922 7.82391C6.28208 8.2287 6.43233 8.62047 6.70833 8.91667L16.0833 18.2917C16.3795 18.5677 16.7713 18.7179 17.1761 18.7108C17.5809 18.7036 17.9671 18.5397 18.2534 18.2534C18.5397 17.9671 18.7036 17.5809 18.7108 17.1761C18.7179 16.7713 18.5677 16.3795 18.2917 16.0833L8.91667 6.70833Z" fill="#F35858"/>
<path d="M5.8709 10.9385C5.46629 10.9528 5.08303 11.1235 4.80184 11.4148C4.52066 11.7061 4.36352 12.0951 4.36352 12.5C4.36352 12.9049 4.52066 13.2939 4.80184 13.5852C5.08303 13.8765 5.46629 14.0472 5.8709 14.0615L19.1291 14.0615C19.5338 14.0472 19.917 13.8765 20.1982 13.5852C20.4794 13.2939 20.6365 12.9049 20.6365 12.5C20.6365 12.0951 20.4794 11.7061 20.1982 11.4148C19.917 11.1235 19.5338 10.9528 19.1291 10.9385L5.8709 10.9385Z" fill="white"/>
</svg>
