<svg width="25" height="25" viewBox="0 0 25 25" fill="none" xmlns="http://www.w3.org/2000/svg">
<path d="M12.5 0C9.19724 0.0400743 6.04105 1.3699 3.70548 3.70548C1.3699 6.04105 0.0400743 9.19724 0 12.5C0.0400743 15.8028 1.3699 18.9589 3.70548 21.2945C6.04105 23.6301 9.19724 24.9599 12.5 25C15.8028 24.9599 18.9589 23.6301 21.2945 21.2945C23.6301 18.9589 24.9599 15.8028 25 12.5C24.9599 9.19724 23.6301 6.04105 21.2945 3.70548C18.9589 1.3699 15.8028 0.0400743 12.5 0Z" fill="#F35858"/>
<path fill-rule="evenodd" clip-rule="evenodd" d="M12.498 14.1202L16.547 18.1692C16.7619 18.3841 17.0533 18.5048 17.3571 18.5048C17.661 18.5048 17.9524 18.3841 18.1672 18.1692C18.3821 17.9544 18.5028 17.663 18.5028 17.3591C18.5028 17.0553 18.3821 16.7638 18.1672 16.549L14.1167 12.5L18.1665 8.45094C18.2728 8.34455 18.3572 8.21826 18.4147 8.07928C18.4722 7.9403 18.5018 7.79135 18.5018 7.64094C18.5017 7.49052 18.4721 7.34158 18.4145 7.20263C18.3569 7.06368 18.2725 6.93743 18.1661 6.83109C18.0597 6.72476 17.9334 6.64042 17.7945 6.58289C17.6555 6.52536 17.5065 6.49577 17.3561 6.49581C17.2057 6.49584 17.0568 6.5255 16.9178 6.5831C16.7788 6.64069 16.6526 6.72509 16.5463 6.83148L12.498 10.8805L8.44897 6.83148C8.34337 6.72204 8.21703 6.63473 8.07733 6.57464C7.93763 6.51455 7.78736 6.48289 7.63528 6.48149C7.48321 6.4801 7.33239 6.50901 7.19161 6.56653C7.05083 6.62405 6.92291 6.70903 6.81533 6.81652C6.70774 6.924 6.62264 7.05183 6.56498 7.19256C6.50733 7.33329 6.47828 7.48408 6.47953 7.63616C6.48078 7.78823 6.5123 7.93853 6.57226 8.07829C6.63222 8.21805 6.71941 8.34447 6.82875 8.45017L10.8793 12.5L6.82951 16.5498C6.72017 16.6555 6.63298 16.7819 6.57302 16.9216C6.51307 17.0614 6.48154 17.2117 6.48029 17.3638C6.47905 17.5158 6.50809 17.6666 6.56575 17.8074C6.6234 17.9481 6.7085 18.0759 6.81609 18.1834C6.92367 18.2909 7.05159 18.3759 7.19237 18.4334C7.33315 18.4909 7.48398 18.5198 7.63605 18.5184C7.78812 18.517 7.93839 18.4854 8.07809 18.4253C8.2178 18.3652 8.34413 18.2779 8.44973 18.1685L12.498 14.1202Z" fill="white"/>
</svg>
