<svg xmlns="http://www.w3.org/2000/svg" width="43" height="15" fill="none" stroke="currentColor" viewBox="0 0 43 15"><path fill="currentColor" d="M23.13 14.754V12.46l5.095-5.656H23.19V4.426h8.302v2.316l-5.156 5.635h5.257v2.377zM6.11 15q-.792 0-1.401-.205a3.5 3.5 0 0 1-1.076-.533 3.7 3.7 0 0 1-.791-.799l-.325 1.291H0V0h2.842v5.84q.466-.717 1.258-1.188.811-.472 1.99-.472 1.4 0 2.496.718a4.8 4.8 0 0 1 1.745 1.926q.65 1.209.65 2.787 0 1.536-.65 2.766-.63 1.23-1.725 1.926Q7.51 15 6.11 15m-.69-2.5q.771 0 1.38-.369a2.57 2.57 0 0 0 .954-1.024q.345-.656.345-1.496 0-.861-.345-1.517A2.57 2.57 0 0 0 6.8 7.07a2.5 2.5 0 0 0-1.38-.39q-.792 0-1.401.39a2.6 2.6 0 0 0-.934 1.024Q2.74 8.73 2.74 9.59q0 .861.345 1.517t.934 1.024a2.65 2.65 0 0 0 1.4.369m9.141 1.844Q15.757 15 17.3 15q1.218 0 2.192-.45a5 5 0 0 0 1.644-1.25q.69-.78.974-1.743h-2.902a1.97 1.97 0 0 1-.731.8q-.466.307-1.198.307-.73 0-1.278-.328a2.24 2.24 0 0 1-.853-.922 3 3 0 0 1-.293-1.107h7.499a4 4 0 0 0 .04-.532q.02-.246.02-.451 0-1.497-.649-2.644a4.7 4.7 0 0 0-1.786-1.823q-1.137-.677-2.659-.677-1.583 0-2.78.718a5.05 5.05 0 0 0-1.848 1.967q-.65 1.23-.65 2.828 0 1.577.67 2.787a4.87 4.87 0 0 0 1.848 1.864m.354-5.778a2.8 2.8 0 0 1 .255-.78q.324-.635.893-.962a2.5 2.5 0 0 1 1.258-.328q.913 0 1.522.574.63.553.69 1.496zm20.231 5.778q1.197.656 2.74.656 1.218 0 2.192-.45a5 5 0 0 0 1.644-1.25q.69-.78.975-1.743h-2.903a1.97 1.97 0 0 1-.73.8q-.468.307-1.198.307-.731 0-1.279-.328a2.24 2.24 0 0 1-.852-.922 3 3 0 0 1-.293-1.107h7.498q.04-.285.04-.532.021-.246.021-.451 0-1.497-.65-2.644a4.7 4.7 0 0 0-1.786-1.823q-1.136-.677-2.659-.677-1.583 0-2.78.718a5.05 5.05 0 0 0-1.847 1.967q-.65 1.23-.65 2.828 0 1.577.67 2.787a4.87 4.87 0 0 0 1.847 1.864m.354-5.778a2.8 2.8 0 0 1 .255-.78q.324-.635.893-.962a2.5 2.5 0 0 1 1.258-.328q.914 0 1.523.574.63.553.69 1.496z"/></svg>