<svg xmlns="http://www.w3.org/2000/svg" width="25" height="25" fill="none" stroke="currentColor" viewBox="0 0 25 25"><path fill="currentColor" d="M10.05 0a1.47 1.47 0 0 1 0 2.941H3.92a.98.98 0 0 0-.98.98V21.08a.98.98 0 0 0 .98.98h17.16a.98.98 0 0 0 .98-.98v-6.13a1.471 1.471 0 0 1 2.941 0v6.128A3.92 3.92 0 0 1 21.079 25H3.92A3.92 3.92 0 0 1 0 21.079V3.92A3.92 3.92 0 0 1 3.921 0z"/><path fill="currentColor" d="M23.53 0C24.341 0 25 .658 25 1.47v6.128a1.47 1.47 0 0 1-2.941 0V5.02l-6.681 6.68a1.47 1.47 0 1 1-2.08-2.079l6.681-6.68h-2.577a1.47 1.47 0 0 1 0-2.942z"/></svg>