<svg xmlns="http://www.w3.org/2000/svg" width="22" height="23" fill="none" stroke="currentColor" viewBox="0 0 22 23"><path fill="currentColor" d="M6.936 23q-.953 0-1.633-.676a2.2 2.2 0 0 1-.679-1.624q0-.95.68-1.624.679-.675 1.632-.676.954 0 1.633.676.68.675.68 1.624t-.68 1.624T6.936 23m10.461 0q-.954 0-1.633-.676a2.2 2.2 0 0 1-.679-1.624q0-.95.68-1.624.678-.675 1.632-.676.954 0 1.633.676.68.675.68 1.624t-.68 1.624-1.633.676M5.954 4.6l2.774 5.75h6.993L18.9 4.6zM4.855 2.3h15.953q.665 0 1.011.59.346.588.029 1.192l-4.104 7.36q-.318.575-.853.892-.534.316-1.17.316H8.208l-1.272 2.3H19.71v2.3H6.936q-1.3 0-1.965-1.136-.664-1.135-.058-2.257l1.561-2.817L2.312 2.3H0V0h3.757z"/></svg>