<svg xmlns="http://www.w3.org/2000/svg" width="23" height="25" fill="none" stroke="currentColor" viewBox="0 0 23 25"><path fill="currentColor" d="M11.5 17.708c.554 0 1.086-.22 1.478-.61a2.08 2.08 0 0 0 0-2.946 2.095 2.095 0 0 0-2.957 0 2.08 2.08 0 0 0 0 2.946 2.1 2.1 0 0 0 1.479.61m6.273-9.375c.554 0 1.086.22 1.478.61.392.391.612.921.612 1.474v10.416a2.08 2.08 0 0 1-.612 1.473c-.392.391-.924.61-1.478.61H5.227a2.1 2.1 0 0 1-1.478-.61 2.08 2.08 0 0 1-.613-1.473V10.417c0-.553.22-1.083.613-1.474.392-.39.924-.61 1.478-.61h1.046V6.25a5.2 5.2 0 0 1 1.53-3.683 5.237 5.237 0 0 1 8.526 1.69c.263.632.398 1.309.398 1.993v2.083zM11.5 3.125c-.832 0-1.63.33-2.218.915a3.12 3.12 0 0 0-.918 2.21v2.083h6.272V6.25a3.12 3.12 0 0 0-.918-2.21 3.14 3.14 0 0 0-2.218-.915"/></svg>