<svg width="20" height="20" viewBox="0 0 20 20" fill="none" xmlns="http://www.w3.org/2000/svg">
<path d="M9.99998 7.5C9.33694 7.5 8.70105 7.76339 8.23221 8.23223C7.76337 8.70107 7.49998 9.33696 7.49998 10C7.49998 10.663 7.76337 11.2989 8.23221 11.7678C8.70105 12.2366 9.33694 12.5 9.99998 12.5C10.663 12.5 11.2989 12.2366 11.7677 11.7678C12.2366 11.2989 12.5 10.663 12.5 10C12.5 9.33696 12.2366 8.70107 11.7677 8.23223C11.2989 7.76339 10.663 7.5 9.99998 7.5ZM9.99998 14.1667C8.89491 14.1667 7.8351 13.7277 7.0537 12.9463C6.2723 12.1649 5.83331 11.1051 5.83331 10C5.83331 8.89493 6.2723 7.83512 7.0537 7.05372C7.8351 6.27232 8.89491 5.83333 9.99998 5.83333C11.105 5.83333 12.1649 6.27232 12.9463 7.05372C13.7277 7.83512 14.1666 8.89493 14.1666 10C14.1666 11.1051 13.7277 12.1649 12.9463 12.9463C12.1649 13.7277 11.105 14.1667 9.99998 14.1667ZM9.99998 3.75C5.83331 3.75 2.27498 6.34167 0.833313 10C2.27498 13.6583 5.83331 16.25 9.99998 16.25C14.1666 16.25 17.725 13.6583 19.1666 10C17.725 6.34167 14.1666 3.75 9.99998 3.75Z" fill="#FF8EB1"/>
</svg>
