<svg width="25" height="25" viewBox="0 0 25 25" fill="none" xmlns="http://www.w3.org/2000/svg">
<path d="M12.5 25C19.4036 25 25 19.4036 25 12.5C25 5.59644 19.4036 0 12.5 0C5.59644 0 0 5.59644 0 12.5C0 19.4036 5.59644 25 12.5 25Z" fill="#FFAE52"/>
<path fill-rule="evenodd" clip-rule="evenodd" d="M9.81036 6.73069C9.93536 7.51819 10.1209 8.26435 10.3632 8.73454C10.5536 9.10473 10.9267 9.57492 11.4382 10.0874C11.7892 10.4384 12.1613 10.7663 12.4998 11.0451C12.8382 10.7663 13.2113 10.4384 13.5613 10.0874C14.0729 9.57492 14.4459 9.10473 14.6363 8.73454C14.8786 8.26435 15.0632 7.51819 15.1892 6.73069H9.81036ZM9.17383 4.80762C8.36229 4.80762 7.71421 5.47781 7.80844 6.28454C7.92863 7.31916 8.1719 8.67877 8.65363 9.61531C9.29979 10.8701 10.7863 12.1567 11.7113 12.8778C12.1777 13.2432 12.8219 13.2432 13.2882 12.8778C14.2132 12.1567 15.6998 10.8701 16.3459 9.61531C16.8277 8.67973 17.0709 7.31916 17.1921 6.28454C17.2854 5.47685 16.6373 4.80762 15.8257 4.80762H9.17383Z" fill="white"/>
<path fill-rule="evenodd" clip-rule="evenodd" d="M15.189 18.2693C15.064 17.4818 14.8784 16.7356 14.6361 16.2654C14.4458 15.8962 14.0727 15.4241 13.5611 14.9125C13.2223 14.577 12.8681 14.2574 12.4996 13.9548C12.1611 14.2337 11.7881 14.5616 11.4381 14.9125C10.9265 15.4241 10.5534 15.8962 10.3631 16.2654C10.1208 16.7356 9.93614 17.4818 9.81017 18.2693H15.189ZM15.8256 20.1923C16.6371 20.1923 17.2852 19.5221 17.1909 18.7164C17.0708 17.6808 16.8275 16.3202 16.3458 15.3846C15.6996 14.1298 14.2131 12.8433 13.2881 12.1221C13.0633 11.9453 12.7856 11.8491 12.4996 11.8491C12.2136 11.8491 11.9359 11.9453 11.7111 12.1221C10.7861 12.8433 9.2996 14.1298 8.65344 15.3846C8.17171 16.3202 7.92844 17.6808 7.80729 18.7164C7.71402 19.5221 8.3621 20.1923 9.17364 20.1923H15.8256Z" fill="white"/>
<path d="M9.61572 18.0289C9.61572 18.0289 11.5388 16.5865 12.5003 16.5865C13.4619 16.5865 15.385 18.0289 15.385 18.0289V18.5096H9.61572V18.0289Z" fill="white"/>
<path fill-rule="evenodd" clip-rule="evenodd" d="M6.73047 5.28844C6.73047 5.03343 6.83177 4.78886 7.0121 4.60853C7.19242 4.42821 7.43699 4.3269 7.69201 4.3269H17.3074C17.5624 4.3269 17.807 4.42821 17.9873 4.60853C18.1676 4.78886 18.2689 5.03343 18.2689 5.28844C18.2689 5.54346 18.1676 5.78803 17.9873 5.96835C17.807 6.14868 17.5624 6.24998 17.3074 6.24998H7.69201C7.43699 6.24998 7.19242 6.14868 7.0121 5.96835C6.83177 5.78803 6.73047 5.54346 6.73047 5.28844ZM6.73047 19.7115C6.73047 19.4565 6.83177 19.2119 7.0121 19.0316C7.19242 18.8513 7.43699 18.75 7.69201 18.75H17.3074C17.5624 18.75 17.807 18.8513 17.9873 19.0316C18.1676 19.2119 18.2689 19.4565 18.2689 19.7115C18.2689 19.9665 18.1676 20.2111 17.9873 20.3914C17.807 20.5718 17.5624 20.6731 17.3074 20.6731H7.69201C7.43699 20.6731 7.19242 20.5718 7.0121 20.3914C6.83177 20.2111 6.73047 19.9665 6.73047 19.7115Z" fill="white"/>
</svg>
