<svg xmlns="http://www.w3.org/2000/svg" width="22" height="23" fill="none" stroke="currentColor" viewBox="0 0 22 23"><path fill="currentColor" d="M2.322 23a2.25 2.25 0 0 1-1.64-.676A2.2 2.2 0 0 1 0 20.7V4.6q0-.949.682-1.624a2.25 2.25 0 0 1 1.64-.676h1.161V0h2.323v2.3h10.388V0h2.323v2.3h1.16q.96 0 1.64.676.684.675.683 1.624v16.1q0 .95-.682 1.624a2.25 2.25 0 0 1-1.64.676zm0-2.3h17.356V9.2H2.322zm0-13.8h17.356V4.6H2.322zm8.617 6.9a1.13 1.13 0 0 1-.827-.33 1.1 1.1 0 0 1-.334-.82q0-.489.334-.82.333-.33.827-.33t.827.33.334.82-.334.82a1.13 1.13 0 0 1-.827.33m-5.133 0a1.13 1.13 0 0 1-.828-.33 1.1 1.1 0 0 1-.334-.82q0-.489.334-.82t.828-.33.827.33.334.82-.334.82a1.13 1.13 0 0 1-.827.33m10.388 0q-.492 0-.827-.33a1.1 1.1 0 0 1-.334-.82q0-.489.334-.82t.827-.33.828.33.334.82-.334.82a1.13 1.13 0 0 1-.828.33m-5.255 4.6a1.13 1.13 0 0 1-.827-.33 1.1 1.1 0 0 1-.334-.82q0-.489.334-.82.333-.33.827-.33t.827.33q.334.331.334.82t-.334.82a1.13 1.13 0 0 1-.827.33m-5.133 0a1.13 1.13 0 0 1-.828-.33 1.1 1.1 0 0 1-.334-.82q0-.489.334-.82t.828-.33.827.33.334.82-.334.82a1.13 1.13 0 0 1-.827.33m10.388 0q-.492 0-.827-.33a1.1 1.1 0 0 1-.334-.82q0-.489.334-.82t.827-.33.828.33.334.82-.334.82a1.13 1.13 0 0 1-.828.33"/></svg>