<svg width="22" height="23" viewBox="0 0 22 23" fill="none" xmlns="http://www.w3.org/2000/svg">
<path d="M21.8496 18.0869H20.1318C19.687 18.1205 19.2864 18.2857 19 18.5312C18.6834 18.803 18.5412 19.1365 18.541 19.4443C18.5412 19.7522 18.6832 20.0856 19 20.3574C19.3217 20.6333 19.7869 20.8094 20.2979 20.8096H21.9521V22.8096H3.75684C2.80595 22.8095 1.86833 22.4868 1.15625 21.876C0.439476 21.2611 0.000143913 20.3904 0 19.4443V3.36426C0.000142638 2.41845 0.439753 1.54842 1.15625 0.933594C1.86833 0.322807 2.80594 9.8641e-05 3.75684 0H21.8496V18.0869ZM3.74805 18.0801C3.24064 18.0822 2.77887 18.2571 2.45898 18.5312C2.14236 18.803 2.00014 19.1365 2 19.4443C2.00014 19.7523 2.14205 20.0856 2.45898 20.3574C2.78074 20.6334 3.24573 20.8095 3.75684 20.8096H16.8633C16.6561 20.3904 16.5411 19.9269 16.541 19.4443C16.5411 18.9645 16.6554 18.5042 16.8604 18.0869H3.74805V18.0801ZM3.75684 2C3.24596 2.0001 2.78072 2.17543 2.45898 2.45117C2.14236 2.72295 2.00014 3.05644 2 3.36426V16.4697C2.54275 16.2134 3.14702 16.0801 3.75684 16.0801V16.0869H19.8496V2H3.75684Z" fill="#FF8EB1"/>
</svg>
