<svg xmlns="http://www.w3.org/2000/svg" width="22" height="23" fill="none" stroke="currentColor" viewBox="0 0 22 23"><path fill="currentColor" d="M21.85 18.087h-1.718A1.98 1.98 0 0 0 19 18.53c-.317.272-.459.606-.459.913s.142.642.459.913c.322.276.787.452 1.298.453h1.654v2H3.757c-.951 0-1.889-.323-2.6-.934C.438 21.261 0 20.39 0 19.444V3.364c0-.946.44-1.816 1.156-2.43C1.868.323 2.806 0 3.756 0H21.85zM3.748 18.08c-.507.002-.97.177-1.289.451-.317.272-.459.606-.459.913s.142.642.459.913c.322.276.787.453 1.298.453h13.106a3.1 3.1 0 0 1-.322-1.366c0-.48.114-.94.32-1.357H3.747zM3.757 2c-.511 0-.976.175-1.298.451-.317.272-.459.605-.459.913V16.47a4.1 4.1 0 0 1 1.757-.39v.007H19.85V2z"/></svg>