<svg xmlns="http://www.w3.org/2000/svg" width="25" height="25" fill="none" stroke="currentColor" viewBox="0 0 25 25"><path fill="currentColor" d="m23.056 25-8.75-8.75a8.47 8.47 0 0 1-5.278 1.806q-3.785 0-6.406-2.622Q0 12.812 0 9.028q0-3.785 2.622-6.406Q5.243 0 9.028 0t6.406 2.622q2.622 2.621 2.622 6.406a8.47 8.47 0 0 1-1.806 5.278l8.75 8.75-.486.486-.486.486-.486.486zM9.028 15.278q2.604 0 4.427-1.823t1.823-4.427T13.455 4.6 9.028 2.778 4.6 4.6 2.778 9.028 4.6 13.455q1.822 1.823 4.427 1.823"/></svg>