<svg width="25" height="25" viewBox="0 0 25 25" fill="none" xmlns="http://www.w3.org/2000/svg">
<circle cx="12.5" cy="12.5" r="12.5" fill="#53BD5A"/>
<path d="M15.1046 14.7861L19.6257 10.2097C19.7444 10.0895 19.8386 9.94677 19.9028 9.78969C19.967 9.63261 20 9.46426 20 9.29426C20 9.12425 19.9668 8.95592 19.9026 8.79887C19.8383 8.64182 19.744 8.49914 19.6253 8.37895C19.5065 8.25877 19.3655 8.16345 19.2104 8.09843C19.0552 8.03341 18.8889 7.99996 18.721 8C18.5531 8.00004 18.3868 8.03356 18.2317 8.09866C18.0766 8.16375 17.9356 8.25915 17.8169 8.37938L13.2976 12.9557L11.4905 14.7861L11.2436 15.0361L8.19782 11.7491C8.07982 11.6255 7.93869 11.527 7.78267 11.4592C7.62664 11.3914 7.45885 11.3558 7.28908 11.3544C7.11931 11.353 6.95097 11.3858 6.79387 11.451C6.63676 11.5161 6.49406 11.6123 6.37406 11.7339C6.25407 11.8555 6.1592 12.0001 6.09498 12.1592C6.03077 12.3183 5.9985 12.4888 6.00005 12.6607C6.00161 12.8325 6.03696 13.0024 6.10404 13.1603C6.17112 13.3182 6.26859 13.461 6.39077 13.5803L9.53611 16.7648L10.3519 17.5907C10.937 18.1317 11.6146 18.1412 12.2718 17.5907L13.2976 16.6173L15.1046 14.7861Z" fill="white"/>
</svg>
