<svg width="21" height="23" viewBox="0 0 21 23" fill="none" xmlns="http://www.w3.org/2000/svg">
<path d="M11.5396 12.4329C12.1712 12.4329 12.6828 12.9427 12.6828 13.5721C12.6828 14.2016 12.1712 14.7114 11.5396 14.7114H6.34142C5.70983 14.7114 5.19822 14.2016 5.19822 13.5721C5.19822 12.9427 5.70983 12.4329 6.34142 12.4329H11.5396Z" fill="#FF8EB1"/>
<path d="M14.6586 8.28858C15.2902 8.28858 15.8018 8.79843 15.8018 9.42786C15.8018 10.0573 15.2902 10.5671 14.6586 10.5671H6.34142C5.70983 10.5671 5.19822 10.0573 5.19822 9.42786C5.19822 8.79843 5.70983 8.28858 6.34142 8.28858H14.6586Z" fill="#FF8EB1"/>
<path fill-rule="evenodd" clip-rule="evenodd" d="M11.5396 2.45269e-06C13.4673 2.45269e-06 15.0283 -0.00242931 16.2546 0.161889C17.5139 0.330673 18.591 0.693575 19.4476 1.54804C20.3037 2.40198 20.668 3.47434 20.8376 4.72911C21.0026 5.95115 21 7.50652 21 9.42786V13.5721C21 15.4932 21.0024 17.0488 20.8376 18.2709C20.6682 19.5258 20.304 20.5992 19.4466 21.453C18.5897 22.3061 17.5137 22.6692 16.2546 22.8381C15.0283 23.0026 13.4676 23 11.5396 23H9.46036C7.53268 23 5.97172 23.0024 4.74541 22.8381C3.48615 22.6693 2.40904 22.3064 1.55236 21.452C0.696294 20.598 0.331954 19.5257 0.162447 18.2709C-0.00261068 17.0489 2.46151e-06 15.4935 2.46151e-06 13.5721V9.42786C2.46151e-06 7.5068 -0.00243765 5.95121 0.162447 4.72911C0.331813 3.47417 0.695966 2.40076 1.55338 1.54703C2.41026 0.693903 3.48631 0.330814 4.74541 0.161889C5.97166 -0.00260157 7.5324 2.45269e-06 9.46036 2.45269e-06H11.5396ZM9.46036 2.27855C7.46795 2.27855 6.08831 2.28191 5.04999 2.42121C4.04481 2.55612 3.5312 2.79987 3.1697 3.15982C2.80874 3.51932 2.56378 4.03065 2.42855 5.03264C2.28891 6.06753 2.28641 7.44226 2.28641 9.42786V13.5721C2.28641 15.5577 2.28978 16.9326 2.42956 17.9674C2.56493 18.9691 2.80952 19.4809 3.17071 19.8412C3.53145 20.2009 4.04454 20.445 5.04999 20.5798C6.08845 20.719 7.46792 20.7214 9.46036 20.7214H11.5396C13.5321 20.7214 14.9117 20.7181 15.95 20.5788C16.9552 20.4439 17.4688 20.2001 17.8303 19.8402C18.1913 19.4807 18.4362 18.9694 18.5715 17.9674C18.7111 16.9325 18.7136 15.5577 18.7136 13.5721V9.42786C18.7136 7.44229 18.7102 6.06739 18.5704 5.03264C18.4351 4.03091 18.1905 3.51907 17.8293 3.15881C17.4686 2.79909 16.9555 2.55497 15.95 2.4202C14.9116 2.28104 13.5321 2.27855 11.5396 2.27855H9.46036Z" fill="#FF8EB1"/>
</svg>
