<svg width="24" height="23" viewBox="0 0 24 23" fill="none" xmlns="http://www.w3.org/2000/svg">
<path d="M2.52632 20.4444V2.55556C2.52632 2.55556 2.52632 3.0294 2.52632 3.97708C2.52632 4.92477 2.52632 6.15463 2.52632 7.66667V15.3333C2.52632 16.8454 2.52632 18.0752 2.52632 19.0229C2.52632 19.9706 2.52632 20.4444 2.52632 20.4444ZM2.52632 23C1.83158 23 1.23684 22.7498 0.742105 22.2493C0.247368 21.7488 0 21.1472 0 20.4444V2.55556C0 1.85278 0.247368 1.25116 0.742105 0.750695C1.23684 0.250232 1.83158 1.19209e-07 2.52632 1.19209e-07H20.2105C20.9053 1.19209e-07 21.5 0.250232 21.9947 0.750695C22.4895 1.25116 22.7368 1.85278 22.7368 2.55556V5.75H20.2105V2.55556H2.52632V20.4444H20.2105V17.25H22.7368V20.4444C22.7368 21.1472 22.4895 21.7488 21.9947 22.2493C21.5 22.7498 20.9053 23 20.2105 23H2.52632ZM12.6316 17.8889C11.9368 17.8889 11.3421 17.6387 10.8474 17.1382C10.3526 16.6377 10.1053 16.0361 10.1053 15.3333V7.66667C10.1053 6.96389 10.3526 6.36227 10.8474 5.86181C11.3421 5.36134 11.9368 5.11111 12.6316 5.11111H21.4737C22.1684 5.11111 22.7632 5.36134 23.2579 5.86181C23.7526 6.36227 24 6.96389 24 7.66667V15.3333C24 16.0361 23.7526 16.6377 23.2579 17.1382C22.7632 17.6387 22.1684 17.8889 21.4737 17.8889H12.6316ZM21.4737 15.3333V7.66667H12.6316V15.3333H21.4737ZM16.4211 13.4167C16.9474 13.4167 17.3947 13.2303 17.7632 12.8576C18.1316 12.485 18.3158 12.0324 18.3158 11.5C18.3158 10.9676 18.1316 10.515 17.7632 10.1424C17.3947 9.76968 16.9474 9.58333 16.4211 9.58333C15.8947 9.58333 15.4474 9.76968 15.0789 10.1424C14.7105 10.515 14.5263 10.9676 14.5263 11.5C14.5263 12.0324 14.7105 12.485 15.0789 12.8576C15.4474 13.2303 15.8947 13.4167 16.4211 13.4167Z" fill="#FF8EB1"/>
</svg>
