<svg width="22" height="23" viewBox="0 0 22 23" fill="none" xmlns="http://www.w3.org/2000/svg">
<path d="M21.8945 18.2344H20.1758C19.7307 18.2681 19.3297 18.4342 19.042 18.6826C18.7235 18.9577 18.5792 19.297 18.5791 19.6133C18.5791 19.9297 18.7234 20.2688 19.042 20.5439C19.3651 20.823 19.8308 20.9999 20.3418 21H22V23H3.7627C2.8083 22.9999 1.86836 22.6735 1.15527 22.0576C0.437703 21.4377 0 20.5625 0 19.6133V3.38672C0 2.4375 0.437702 1.56227 1.15527 0.942383C1.86836 0.326539 2.8083 0.000105351 3.7627 0H21.8945V18.2344ZM3.75391 18.2275C3.24652 18.2297 2.78412 18.4053 2.46289 18.6826C2.14441 18.9577 2.00011 19.297 2 19.6133C2 19.9297 2.14441 20.2688 2.46289 20.5439C2.78598 20.823 3.25176 20.9999 3.7627 21H16.9092C16.6972 20.5741 16.5791 20.1038 16.5791 19.6133C16.5792 19.1257 16.6956 18.6582 16.9053 18.2344H3.75391V18.2275ZM3.7627 2C3.25176 2.00011 2.78598 2.17702 2.46289 2.45605C2.14441 2.73118 2 3.07035 2 3.38672V16.6201C2.54416 16.3613 3.15044 16.2276 3.7627 16.2275V16.2344H19.8945V2H3.7627Z" fill="#FF8EB1"/>
</svg>
