<svg width="23" height="23" viewBox="0 0 23 23" fill="none" xmlns="http://www.w3.org/2000/svg">
<path fill-rule="evenodd" clip-rule="evenodd" d="M11.5576 7.47461C12.6636 7.4747 13.6078 7.86761 14.3896 8.65332C15.1716 9.43915 15.5625 10.3883 15.5625 11.5C15.5625 12.6117 15.1716 13.5608 14.3896 14.3467C13.6078 15.1324 12.6636 15.5253 11.5576 15.5254C10.4325 15.5254 9.48328 15.1323 8.71094 14.3467C7.93855 13.5608 7.55176 12.6117 7.55176 11.5C7.55176 10.3883 7.93855 9.43915 8.71094 8.65332C9.48328 7.86767 10.4325 7.47461 11.5576 7.47461ZM11.5 9.77539C10.5473 9.77539 9.7754 10.5473 9.77539 11.5C9.77539 12.4527 10.5473 13.2246 11.5 13.2246C12.4526 13.2246 13.2246 12.4527 13.2246 11.5C13.2246 10.5474 12.4526 9.77544 11.5 9.77539Z" fill="#FF8EB1"/>
<path fill-rule="evenodd" clip-rule="evenodd" d="M15.1045 3.67969C15.3524 3.77552 15.5863 3.89122 15.8057 4.02539C16.0248 4.15949 16.2396 4.30282 16.4492 4.45605L19.8535 3.01855L23 8.48145L20.0537 10.7236C20.0728 10.8578 20.082 10.9877 20.082 11.1123V11.8877C20.082 12.0123 20.0626 12.1422 20.0244 12.2764L22.9717 14.5186L19.8242 19.9814L16.4492 18.5439C16.2395 18.6972 16.0198 18.8405 15.791 18.9746C15.5622 19.1088 15.3333 19.2245 15.1045 19.3203L14.6465 23H8.35352L7.89551 19.3203C7.64758 19.2245 7.41366 19.1088 7.19434 18.9746C6.97516 18.8405 6.76044 18.6972 6.55078 18.5439L3.14648 19.9814L0 14.5186L2.94629 12.2764C2.92722 12.1422 2.91797 12.0123 2.91797 11.8877V11.1123C2.91797 10.9877 2.92722 10.8578 2.94629 10.7236L0 8.48145L3.14648 3.01855L6.55078 4.45605C6.76052 4.30275 6.98018 4.15953 7.20898 4.02539C7.43784 3.89122 7.66665 3.77552 7.89551 3.67969L8.35352 0H14.6465L15.1045 3.67969ZM9.9834 5.34766C9.39236 5.50099 8.84413 5.72643 8.33887 6.02344C7.83355 6.3205 7.37069 6.67995 6.95117 7.10156L4.11914 5.92285L3.00391 7.87793L5.46387 9.71777C5.36856 10.0052 5.3018 10.2927 5.26367 10.5801C5.22554 10.8676 5.20605 11.1742 5.20605 11.5C5.20605 11.8067 5.22553 12.1041 5.26367 12.3916C5.30182 12.679 5.36855 12.9665 5.46387 13.2539L3.00391 15.1221L4.11914 17.0771L6.95117 15.8701C7.37069 16.3109 7.83355 16.6795 8.33887 16.9766C8.84413 17.2736 9.39236 17.499 9.9834 17.6523L10.3555 20.7002H12.6152L13.0166 17.6523C13.6076 17.499 14.1559 17.2736 14.6611 16.9766C15.1665 16.6795 15.6293 16.3201 16.0488 15.8984L18.8809 17.0771L19.9961 15.1221L17.5361 13.2539C17.6315 12.9856 17.6982 12.7024 17.7363 12.4053C17.7744 12.1083 17.7939 11.8065 17.7939 11.5C17.7939 11.1935 17.7744 10.8917 17.7363 10.5947C17.6982 10.2976 17.6315 10.0144 17.5361 9.74609L19.9961 7.87793L18.8809 5.92285L16.0488 7.12988C15.6293 6.6891 15.1665 6.3205 14.6611 6.02344C14.1559 5.72643 13.6076 5.50099 13.0166 5.34766L12.6445 2.2998H10.3848L9.9834 5.34766Z" fill="#FF8EB1"/>
</svg>
